<?xml version="1.0" encoding="utf-8"?>
<!-- Generator: Adobe Illustrator 24.0.0, SVG Export Plug-In . SVG Version: 6.00 Build 0)  -->
<svg version="1.1" id="Laag_1" xmlns="http://www.w3.org/2000/svg" xmlns:xlink="http://www.w3.org/1999/xlink" x="0px" y="0px"
	 viewBox="0 0 100 125" style="enable-background:new 0 0 100 125;" xml:space="preserve">
<style type="text/css">
	.st0{fill:#FFFFFF;}
	.st1{fill:#B89324;}
	.st2{fill:url(#SVGID_1_);}
	.st3{fill:#F2CD5C;}
</style>
<title>4</title>
<g id="XMLID_1_">
	<g>
		<path class="st0" d="M160.2,58.7c2.4,9.1-2.7,18.5-11.4,21.5l0.5,1.9c0,0.2,0.1,0.3,0.1,0.5c1.2,5.2-2,10.5-7.3,11.8
			c0,0-42.1,11.1-42.3,11.1c-0.8,0.2-1.5,0.3-2.3,0.3c-4.6,0-8.5-3.1-9.6-7.5l-5.7-21.8C75.9,74.9,70.7,70,69,63.4l-4.7-18
			c-2.5-9.5,2.2-19.3,10.7-23.5c0.9-3,2.4-5.8,4.4-8.2c4.5-5.4,11.1-8.5,18.1-8.5c4.2,0,8.4,1.2,12,3.3c1.6-0.4,3.2-0.6,4.9-0.6
			c7.1,0,13.5,3.7,17,9.6l2.1,4.6c0.1,0.3,0.2,0.5,0.2,0.8l1.8,7c1-0.2,2.1-0.3,3.1-0.3c8.2,0,15.3,5.5,17.4,13.4L160.2,58.7z"/>
	</g>
</g>
<path class="st1" d="M135.6,35.9l-4.4,1.1L128,24.4h-0.1c0-0.1,0.1-0.1,0-0.2c-2-7.4-9.5-11.9-17-10l-2.2,0.9
	C101.2,9,90.2,10,84.1,17.5c-2.1,2.5-3.4,5.6-3.9,8.8c-7.6,2.1-12.1,9.9-10.1,17.5l4.7,18c1.5,5.5,6.5,9.3,12.2,9.2l6.7,25.7
	c0.5,2.1,2.6,3.4,4.7,2.9c0.1,0,0.1,0,0.2-0.1l42-11c2.1-0.5,3.4-2.6,2.9-4.7c0-0.1,0-0.1-0.1-0.2l-2-7.7l4.4-1.1
	c6.4-1.7,10.2-8.2,8.6-14.7l-4.1-15.8C148.6,38,142,34.2,135.6,35.9z M134.8,81.9l-34.2,9l-1-3.9l34.2-9L134.8,81.9z M115.9,33.3
	c-1.6,0.4-3.3,0.1-4.6-0.7c-0.9-0.6-2-0.8-3-0.5s-1.9,0.9-2.5,1.8c-1.3,2.1-3.3,3.6-5.7,4.2c-1.5,0.4-3.1,0.4-4.6,0.1
	c-1.1-0.3-2.3-0.1-3.2,0.5c-1,0.6-1.6,1.5-1.8,2.6c-0.2,1.1-0.6,2.1-1.3,2.9c-0.8,1-1,2.3-0.7,3.5l2.6,10c0.3,2.4-1.5,4.6-3.9,4.8
	c-1.9,0.2-3.7-0.9-4.5-2.6l-4.7-18c-1-3.5,1-7,4.4-7.9l1.7-0.2c1.1,0,2.1-0.5,2.9-1.3s1.2-1.9,1.1-3.1c-0.5-5.2,3.4-9.9,8.6-10.3
	c3.2-0.3,6.4,1.1,8.4,3.6c0.7,0.8,1.7,1.3,2.8,1.4c1.1,0.1,2.1-0.3,2.9-1c0.7-0.6,1.4-1,2.3-1.2c3.1-0.8,6.3,1.1,7.2,4.2
	C120.9,29.3,119,32.5,115.9,33.3z M146.7,62.2c0.6,2.1-0.6,4.2-2.7,4.8c-0.1,0-0.1,0-0.2,0.1l-4.4,1.1l-6.2-23.5l4.4-1.1
	c2.1-0.6,4.3,0.7,4.9,2.9L146.7,62.2z"/>
<g id="XMLID_3_">
	<g>
		<path class="st0" d="M84.3,153.2c2.4,9.1-2.7,18.5-11.4,21.5l0.5,1.9c0,0.2,0.1,0.3,0.1,0.5c1.2,5.2-2,10.5-7.3,11.8
			c0,0-42.1,11.1-42.3,11.1c-0.8,0.2-1.5,0.3-2.3,0.3c-4.6,0-8.5-3.1-9.6-7.5L6.3,171c-6.3-1.6-11.5-6.5-13.2-13.1l-4.7-18
			c-2.5-9.5,2.2-19.3,10.7-23.5c0.9-3,2.4-5.8,4.4-8.2c4.5-5.4,11.1-8.5,18.1-8.5c4.2,0,8.4,1.2,12,3.3c1.6-0.4,3.2-0.6,4.9-0.6
			c7.1,0,13.5,3.7,17,9.6l2.1,4.6c0.1,0.3,0.2,0.5,0.2,0.8l1.8,7c1-0.2,2.1-0.3,3.1-0.3c8.2,0,15.3,5.5,17.4,13.4L84.3,153.2z"/>
	</g>
</g>
<linearGradient id="SVGID_1_" gradientUnits="userSpaceOnUse" x1="20.9133" y1="121.483" x2="61.5536" y2="191.4622">
	<stop  offset="0" style="stop-color:#F2CD5C"/>
	<stop  offset="0.2649" style="stop-color:#E3BE4D"/>
	<stop  offset="0.7749" style="stop-color:#BB9627"/>
	<stop  offset="0.809" style="stop-color:#B89324"/>
</linearGradient>
<path class="st2" d="M59.7,130.4l-4.4,1.1l-3.2-12.6H52c0-0.1,0.1-0.1,0-0.2c-2-7.4-9.5-11.9-17-10l-2.2,0.9
	c-7.5-6.1-18.5-5.1-24.6,2.4c-2.1,2.5-3.4,5.6-3.9,8.8c-7.6,2.1-12.1,9.9-10.1,17.5l4.7,18c1.5,5.5,6.5,9.3,12.2,9.2l6.7,25.7
	c0.5,2.1,2.6,3.4,4.7,2.9c0.1,0,0.1,0,0.2-0.1l42-11c2.1-0.5,3.4-2.6,2.9-4.7c0-0.1,0-0.1-0.1-0.2l-2-7.7l4.4-1.1
	c6.4-1.7,10.2-8.2,8.6-14.7l-4.1-15.8C72.7,132.5,66.1,128.7,59.7,130.4z M58.9,176.4l-34.2,9l-1-3.9l34.2-9L58.9,176.4z M40,127.8
	c-1.6,0.4-3.3,0.1-4.6-0.7c-0.9-0.6-2-0.8-3-0.5c-1,0.3-1.9,0.9-2.5,1.8c-1.3,2.1-3.3,3.6-5.7,4.2c-1.5,0.4-3.1,0.4-4.6,0.1
	c-1.1-0.3-2.3-0.1-3.2,0.5c-1,0.6-1.6,1.5-1.8,2.6c-0.2,1.1-0.6,2.1-1.3,2.9c-0.8,1-1,2.3-0.7,3.5l2.6,10c0.3,2.4-1.5,4.6-3.9,4.8
	c-1.9,0.2-3.7-0.9-4.5-2.6l-4.7-18c-1-3.5,1-7,4.4-7.9l1.7-0.2c1.1,0,2.1-0.5,2.9-1.3c0.8-0.8,1.2-1.9,1.1-3.1
	c-0.5-5.2,3.4-9.9,8.6-10.3c3.2-0.3,6.4,1.1,8.4,3.6c0.7,0.8,1.7,1.3,2.8,1.4c1.1,0.1,2.1-0.3,2.9-1c0.7-0.6,1.4-1,2.3-1.2
	c3.1-0.8,6.3,1.1,7.2,4.2C45,123.8,43.1,127,40,127.8z M70.8,156.7c0.6,2.1-0.6,4.2-2.7,4.8c-0.1,0-0.1,0-0.2,0.1l-4.4,1.1
	l-6.2-23.5l4.4-1.1c2.1-0.6,4.3,0.7,4.9,2.9L70.8,156.7z"/>
<g id="XMLID_2_">
	<g>
		<path class="st0" d="M41.8,49.3c2.4,9.1-2.7,18.5-11.4,21.5l0.5,1.9c0,0.2,0.1,0.3,0.1,0.5c1.2,5.2-2,10.5-7.3,11.8
			c0,0-42.1,11-42.2,11.1c-0.8,0.2-1.5,0.3-2.3,0.3c-4.6,0-8.5-3.1-9.6-7.5l-5.7-21.8c-6.3-1.6-11.5-6.6-13.2-13.1L-54,36
			c-2.5-9.5,2.2-19.3,10.7-23.5c0.9-3,2.4-5.8,4.4-8.2c4.5-5.4,11.1-8.5,18.1-8.5c4.2,0,8.4,1.1,12,3.3c1.6-0.4,3.2-0.6,4.9-0.6
			C3-1.6,9.4,2.2,13,8l2.1,4.6c0.1,0.3,0.2,0.5,0.2,0.8c0,0.1,1.8,7,1.8,7c1-0.2,2.1-0.3,3.1-0.3c8.2,0,15.3,5.5,17.4,13.4
			L41.8,49.3z"/>
	</g>
</g>
<path class="st3" d="M17.2,26.5l-4.4,1.1L9.5,15.1H9.4c0-0.1,0.1-0.1,0-0.2c-2-7.4-9.5-11.9-17-10l-2.2,0.9
	c-7.5-6.2-18.5-5.1-24.6,2.3c-2.1,2.5-3.4,5.6-3.9,8.8c-7.6,2.1-12.1,9.9-10.1,17.5l4.7,18c1.5,5.5,6.5,9.3,12.2,9.2l6.7,25.7
	c0.5,2.1,2.6,3.4,4.7,2.9c0.1,0,0.1,0,0.2-0.1l42-11c2.1-0.5,3.4-2.6,2.9-4.7c0-0.1,0-0.1-0.1-0.2l-2-7.7l4.4-1.1
	c6.4-1.7,10.2-8.2,8.6-14.7l-4.1-15.8C30.1,28.7,23.6,24.8,17.2,26.5z M16.3,72.5l-34.2,9l-1-3.9l34.2-9L16.3,72.5z M-2.5,23.9
	c-1.6,0.4-3.3,0.1-4.6-0.7c-0.9-0.6-2-0.8-3-0.5s-1.9,0.9-2.5,1.8c-1.3,2.1-3.3,3.6-5.7,4.2c-1.5,0.4-3.1,0.4-4.6,0.1
	c-1.1-0.3-2.3-0.1-3.2,0.5c-1,0.6-1.6,1.5-1.8,2.6c-0.2,1.1-0.6,2.1-1.3,2.9c-0.8,1-1,2.3-0.7,3.5l2.6,10c0.3,2.4-1.5,4.6-3.9,4.8
	c-1.9,0.2-3.7-0.9-4.5-2.6l-4.7-18c-0.9-3.4,1.1-6.9,4.6-7.8l1.7-0.2c1.1,0,2.1-0.5,2.9-1.3s1.2-1.9,1.1-3.1
	c-0.5-5.2,3.4-9.9,8.6-10.3c3.2-0.3,6.4,1.1,8.4,3.6c0.7,0.8,1.7,1.3,2.8,1.4c1.1,0.1,2.1-0.3,2.9-1c0.7-0.6,1.4-1,2.3-1.2
	c3.1-0.8,6.3,1.1,7.2,4.2C2.5,20,0.6,23.1-2.5,23.9z M28.2,52.9c0.6,2.1-0.6,4.2-2.7,4.8c-0.1,0-0.1,0-0.2,0.1L21,58.9l-6.2-23.5
	l4.4-1.1c2.1-0.6,4.3,0.7,4.9,2.9L28.2,52.9z"/>
</svg>
