<svg xmlns="http://www.w3.org/2000/svg" viewBox="0 0 601.98 150.5"><defs><style>.cls-1{fill:#fff;}</style></defs><title>spotify_code_1</title><g id="Laag_2" data-name="Laag 2"><g id="Laag_1-2" data-name="Laag 1"><rect width="601.98" height="150.5" rx="24.32"/><path class="cls-1" d="M156.48,65.3h0a5.06,5.06,0,0,1,5.05,5.06V76.8a5.06,5.06,0,0,1-5.05,5.06h0a5.06,5.06,0,0,1-5-5.06V70.36A5.06,5.06,0,0,1,156.48,65.3Z"/><path class="cls-1" d="M175.17,54.77h0a5,5,0,0,1,5.05,5V87.33a5.05,5.05,0,0,1-5.05,5.06h0a5.05,5.05,0,0,1-5-5.06V59.82A5,5,0,0,1,175.17,54.77Z"/><rect class="cls-1" x="188.81" y="65.3" width="10.1" height="16.55" rx="5.05"/><path class="cls-1" d="M212.57,39h0A5.06,5.06,0,0,1,217.62,44v59.12a5,5,0,0,1-5.05,5h0a5,5,0,0,1-5-5V44A5.06,5.06,0,0,1,212.57,39Z"/><path class="cls-1" d="M231.26,54.77h0a5,5,0,0,1,5.05,5V87.33a5.05,5.05,0,0,1-5.05,5.06h0a5.05,5.05,0,0,1-5-5.06V59.82A5,5,0,0,1,231.26,54.77Z"/><path class="cls-1" d="M250,28.43h0A5.05,5.05,0,0,1,255,33.49v80.18a5.06,5.06,0,0,1-5.05,5.06h0a5.06,5.06,0,0,1-5-5.06V33.49A5.05,5.05,0,0,1,250,28.43Z"/><path class="cls-1" d="M268.64,54.77h0a5,5,0,0,1,5.05,5V87.33a5.05,5.05,0,0,1-5.05,5.06h0a5.05,5.05,0,0,1-5.05-5.06V59.82A5,5,0,0,1,268.64,54.77Z"/><path class="cls-1" d="M287.35,39h0a5.06,5.06,0,0,1,5,5.06v59.12a5,5,0,0,1-5,5h0a5,5,0,0,1-5.05-5V44A5.06,5.06,0,0,1,287.35,39Z"/><rect class="cls-1" x="300.99" y="28.43" width="10.1" height="90.3" rx="5.05"/><path class="cls-1" d="M324.73,65.3h0a5.06,5.06,0,0,1,5,5.06V76.8a5.06,5.06,0,0,1-5,5.06h0a5.06,5.06,0,0,1-5.05-5.06V70.36A5.06,5.06,0,0,1,324.73,65.3Z"/><rect class="cls-1" x="338.38" y="33.7" width="10.1" height="79.76" rx="5.05"/><rect class="cls-1" x="357.07" y="28.43" width="10.1" height="90.3" rx="5.05"/><path class="cls-1" d="M380.82,54.77h0a5,5,0,0,1,5.05,5V87.33a5.05,5.05,0,0,1-5.05,5.06h0a5.05,5.05,0,0,1-5.05-5.06V59.82A5,5,0,0,1,380.82,54.77Z"/><path class="cls-1" d="M399.51,39h0A5.06,5.06,0,0,1,404.56,44v59.12a5,5,0,0,1-5.05,5h0a5,5,0,0,1-5-5V44A5.06,5.06,0,0,1,399.51,39Z"/><path class="cls-1" d="M418.21,65.3h0a5.06,5.06,0,0,1,5,5.06V76.8a5.06,5.06,0,0,1-5,5.06h0a5.06,5.06,0,0,1-5-5.06V70.36A5.06,5.06,0,0,1,418.21,65.3Z"/><path class="cls-1" d="M436.9,39h0A5.06,5.06,0,0,1,442,44v59.12a5,5,0,0,1-5.05,5h0a5,5,0,0,1-5-5V44A5.06,5.06,0,0,1,436.9,39Z"/><path class="cls-1" d="M455.6,65.3h0a5.06,5.06,0,0,1,5,5.06V76.8a5.06,5.06,0,0,1-5,5.06h0a5.06,5.06,0,0,1-5.05-5.06V70.36A5.06,5.06,0,0,1,455.6,65.3Z"/><path class="cls-1" d="M474.3,33.7h0a5,5,0,0,1,5,5V108.4a5,5,0,0,1-5,5.06h0a5.05,5.05,0,0,1-5.05-5.06V38.75A5,5,0,0,1,474.3,33.7Z"/><path class="cls-1" d="M493,60h0A5.06,5.06,0,0,1,498,65.09v17A5,5,0,0,1,493,87.12h0a5,5,0,0,1-5.05-5.05v-17A5.06,5.06,0,0,1,493,60Z"/><path class="cls-1" d="M511.68,49.5h0a5.05,5.05,0,0,1,5.05,5.06v38a5.06,5.06,0,0,1-5.05,5.06h0a5.06,5.06,0,0,1-5.05-5.06v-38A5.05,5.05,0,0,1,511.68,49.5Z"/><path class="cls-1" d="M530.37,60h0a5.06,5.06,0,0,1,5,5.06v17a5,5,0,0,1-5,5.05h0a5,5,0,0,1-5-5.05v-17A5.06,5.06,0,0,1,530.37,60Z"/><path class="cls-1" d="M549.08,28.43h0a5.05,5.05,0,0,1,5,5.06v80.18a5.06,5.06,0,0,1-5,5.06h0a5.06,5.06,0,0,1-5.05-5.06V33.49A5.05,5.05,0,0,1,549.08,28.43Z"/><path class="cls-1" d="M567.77,65.3h0a5.06,5.06,0,0,1,5.05,5.06V76.8a5.06,5.06,0,0,1-5.05,5.06h0a5.06,5.06,0,0,1-5-5.06V70.36A5.06,5.06,0,0,1,567.77,65.3Z"/><path class="cls-1" d="M76.18,28.43A45.15,45.15,0,1,1,31,73.58,45.14,45.14,0,0,1,76.18,28.43m20.66,65a2.77,2.77,0,0,0-.7-3.65,7,7,0,0,0-.73-.47,45.65,45.65,0,0,0-8.9-4.09,55.61,55.61,0,0,0-17.4-2.77c-2,.1-4,.18-6,.34a79.89,79.89,0,0,0-10.66,1.69,5.78,5.78,0,0,0-.81.24A2.76,2.76,0,0,0,50,87.86a2.69,2.69,0,0,0,2.71,2.27A5.83,5.83,0,0,0,54,90a74.43,74.43,0,0,1,13-1.73,53.06,53.06,0,0,1,10.15.56A42.61,42.61,0,0,1,92.6,94.21a6.79,6.79,0,0,0,.75.41,2.78,2.78,0,0,0,3.51-1.12m5.52-12.4a3.51,3.51,0,0,0-1.17-4.8l-.53-.31a53.89,53.89,0,0,0-11.1-5A68.59,68.59,0,0,0,66,67.81,62.05,62.05,0,0,0,54.83,69.2c-1.51.33-3,.72-4.43,1.16A3.39,3.39,0,0,0,48,73.58a3.5,3.5,0,0,0,2.17,3.31,3.73,3.73,0,0,0,2.51,0,55.84,55.84,0,0,1,15.63-2.2,65.16,65.16,0,0,1,11.9,1.12,53.62,53.62,0,0,1,14.42,4.78c1,.51,1.95,1.09,2.93,1.63a3.5,3.5,0,0,0,4.8-1.12m.53-12.77a4.21,4.21,0,0,0,5.77-1.41,4.27,4.27,0,0,0,.61-2.21,2.33,2.33,0,0,0-.12-.9A4.14,4.14,0,0,0,107.06,61a54,54,0,0,0-9.64-4.38A84.62,84.62,0,0,0,72,52.3a88.13,88.13,0,0,0-10.53.31,73.79,73.79,0,0,0-9.81,1.51c-1.31.3-2.61.63-3.89,1.05a4.13,4.13,0,0,0-2.78,4,4.18,4.18,0,0,0,3,3.92,4.3,4.3,0,0,0,2.41,0c1.31-.34,2.63-.7,3.95-1a68.19,68.19,0,0,1,10.93-1.37,85.94,85.94,0,0,1,9.63,0,81,81,0,0,1,9.2,1.09,63.47,63.47,0,0,1,12.77,3.53,49,49,0,0,1,6,3"/></g></g></svg>